<svg xmlns="http://www.w3.org/2000/svg" viewBox="201.5 79.875 191.625 191.5" width="383" height="383"><path fill="#0A0F47" d="M 211.386719 98.574219 C 211.386719 93.742188 215.304688 89.820312 220.136719 89.820312 L 255.417969 89.820312 C 258.269531 89.820312 260.582031 92.136719 260.578125 94.988281 L 260.535156 156.019531 C 260.53125 159.628906 256.976562 162.160156 253.5625 160.984375 L 215.070312 147.703125 C 212.867188 146.941406 211.386719 144.863281 211.386719 142.527344 C 211.386719 142.527344 211.386719 98.574219 211.386719 98.574219 Z M 211.386719 98.574219 "/><path fill="#0A0F47" d="M 265.789062 98.574219 C 265.789062 93.742188 269.710938 89.820312 274.542969 89.820312 L 316.925781 89.820312 C 322.855469 89.820312 327.070312 95.589844 325.265625 101.238281 L 315.3125 132.421875 C 314.9375 133.597656 314.320312 134.679688 313.496094 135.597656 L 311.167969 138.203125 C 311.167969 138.203125 308.355469 139.402344 303.171875 145.195312 C 300.167969 148.554688 300.4375 147.910156 298.367188 154.535156 C 297.113281 158.554688 297.207031 161.578125 296.996094 163.386719 C 296.609375 166.742188 293.574219 168.523438 287.859375 168.554688 C 282.144531 168.585938 279.984375 168.714844 279.984375 168.714844 L 271.730469 168.6875 C 268.449219 168.675781 265.789062 166.007812 265.789062 162.722656 C 265.789062 162.722656 265.789062 98.574219 265.789062 98.574219 Z M 265.789062 98.574219 "/><path fill="#0A0F47" d="M 211.386719 159.972656 C 211.386719 156.355469 215.003906 153.855469 218.386719 155.140625 L 254.929688 169.007812 C 258.328125 170.300781 260.574219 173.554688 260.574219 177.191406 L 260.582031 199.675781 C 260.582031 202.324219 258.441406 204.480469 255.789062 204.492188 L 216.722656 204.667969 C 213.777344 204.683594 211.386719 202.300781 211.386719 199.359375 C 211.386719 199.359375 211.386719 159.972656 211.386719 159.972656 Z M 211.386719 159.972656 "/><path fill="#0A0F47" d="M 265.789062 177.8125 C 265.789062 175.011719 268.195312 172.816406 270.984375 173.066406 L 292.898438 175.035156 C 295.695312 175.285156 298.199219 176.863281 299.636719 179.273438 L 310.957031 198.273438 C 312.628906 201.082031 310.609375 204.640625 307.34375 204.644531 L 271.695312 204.6875 C 268.433594 204.691406 265.789062 202.050781 265.789062 198.792969 C 265.789062 198.792969 265.789062 177.8125 265.789062 177.8125 Z M 265.789062 177.8125 "/><path fill="#0A0F47" d="M 211.386719 215.132812 C 211.386719 212.054688 213.875 209.5625 216.949219 209.554688 L 255.488281 209.457031 C 258.292969 209.453125 260.574219 211.726562 260.574219 214.535156 L 260.582031 255.894531 C 260.582031 258.734375 258.269531 261.03125 255.429688 261.011719 L 220.078125 260.773438 C 215.269531 260.742188 211.386719 256.832031 211.386719 252.019531 C 211.386719 252.019531 211.386719 215.132812 211.386719 215.132812 Z M 211.386719 215.132812 "/><path fill="#0A0F47" d="M 265.789062 214.949219 C 265.789062 212.023438 268.15625 209.648438 271.085938 209.640625 L 318.496094 209.492188 C 321.175781 209.484375 323.710938 210.703125 325.378906 212.800781 L 356.871094 252.453125 C 359.625 255.917969 357.148438 261.03125 352.722656 261.019531 L 271.039062 260.816406 C 268.136719 260.808594 265.789062 258.457031 265.789062 255.554688 C 265.789062 255.554688 265.789062 214.949219 265.789062 214.949219 Z M 265.789062 214.949219 "/><path fill="#0A0F47" d="M 351.847656 184.375 C 353.503906 182.558594 355.851562 181.523438 358.3125 181.523438 L 377.128906 181.523438 C 380.15625 181.523438 382.609375 183.976562 382.609375 187.003906 L 382.609375 256.902344 C 382.609375 259.140625 380.792969 260.957031 378.554688 260.957031 L 374.328125 260.957031 C 371.671875 260.957031 369.15625 259.75 367.496094 257.675781 L 333.589844 215.34375 C 330.894531 211.976562 331.050781 207.152344 333.957031 203.96875 C 333.957031 203.96875 351.847656 184.375 351.847656 184.375 Z M 351.847656 184.375 "/><path fill="#0A0F47" d="M 331.277344 96.191406 C 332.34375 92.421875 335.785156 89.820312 339.703125 89.820312 L 373.855469 89.820312 C 378.691406 89.820312 382.609375 93.742188 382.609375 98.574219 L 382.609375 174.53125 C 382.609375 176.773438 380.792969 178.589844 378.554688 178.589844 L 374.535156 178.589844 C 374.535156 178.589844 372.320312 178.589844 357.84375 178.589844 C 350.511719 178.589844 356.699219 171.0625 356.894531 162.386719 C 357.003906 157.585938 354.859375 152.417969 352.820312 148.121094 C 346.617188 135.058594 333.082031 133.402344 328.910156 133.292969 C 326.820312 133.238281 324.242188 133.527344 322.789062 131.484375 C 321.335938 129.4375 323.097656 125.113281 323.097656 125.113281 C 323.097656 125.113281 331.277344 96.191406 331.277344 96.191406 Z M 331.277344 96.191406 "/><path fill="#EB493A" fill-rule="evenodd" d="M 303.097656 167.394531 C 302.628906 150.136719 310.234375 141.394531 326.972656 141.054688 C 343.714844 140.71875 350.785156 152.484375 350.691406 167.109375 C 350.609375 180.320312 332.34375 198.648438 332.34375 198.648438 L 327.722656 203.410156 C 327.054688 204.101562 325.953125 204.117188 325.261719 203.453125 L 320.015625 198.390625 C 320.015625 198.390625 303.445312 180.320312 303.097656 167.394531 Z M 303.097656 167.394531  M 318.324219 164.714844 C 318.324219 159.984375 322.15625 156.152344 326.886719 156.152344 C 331.613281 156.152344 335.445312 159.984375 335.445312 164.714844 C 335.445312 169.441406 331.613281 173.273438 326.886719 173.273438 C 322.15625 173.273438 318.324219 169.441406 318.324219 164.714844 Z M 318.324219 164.714844 "/></svg>
